name C:\Users\u0101727\Documents\MyRepositories\upper-imu-dc\Results\main_tracking\Case_16\kinematics.mot
datacolumns 10
datarows 56
range 3.00000000 3.55000000
endheader 
time	clav_prot	clav_elev	scapula_abduction	scapula_elevation	scapula_upward_rot	scapula_winging	plane_elv	shoulder_elv	axial_rot	
          3.00000000	        -21.71668111	          7.01145281	        -13.72831381	          4.06879989	         15.15986505	          3.17214001	        -23.95700356	         10.61339887	         28.91202789	
          3.01000000	        -22.19850337	          7.02034177	        -14.62939718	          4.05861622	         15.11147839	          3.19080474	        -23.37919907	         10.54023218	         28.69714603	
          3.02000000	        -22.24113673	          6.99774779	        -14.73061466	          4.05450698	         15.05515928	          3.20879809	        -22.78815122	         10.47898787	         28.50153055	
          3.03000000	        -22.27858874	          6.96611232	        -14.82252712	          4.04576683	         14.99183548	          3.22879236	        -22.18593428	         10.43466041	         28.32510795	
          3.04000000	        -22.30629972	          6.92662507	        -14.89808790	          4.03383550	         14.92063266	          3.25120376	        -21.57611407	         10.41022705	         28.16441340	
          3.05000000	        -22.32517672	          6.88162861	        -14.95780674	          4.01944986	         14.84512807	          3.27493779	        -20.96739834	         10.40552068	         28.00960937	
          3.06000000	        -22.33557506	          6.83362404	        -15.00135091	          4.00352694	         14.76879900	          3.29892950	        -20.36718606	         10.42038139	         27.85134184	
          3.07000000	        -22.33829585	          6.78531872	        -15.02880348	          3.98689306	         14.69589846	          3.32184037	        -19.78481859	         10.45395644	         27.67942328	
          3.08000000	        -22.33562228	          6.73916384	        -15.04347266	          3.97039431	         14.62957863	          3.34267144	        -19.22522416	         10.50594848	         27.48645940	
          3.09000000	        -22.32934413	          6.69728491	        -15.04732278	          3.95452069	         14.57347368	          3.36024594	        -18.69345816	         10.57529970	         27.26754143	
          3.10000000	        -22.31960385	          6.66122956	        -15.03938050	          3.93955054	         14.53075573	          3.37353346	        -18.19183731	         10.66086358	         27.01763875	
          3.11000000	        -22.30584777	          6.63213778	        -15.01802827	          3.92585377	         14.50331711	          3.38192551	        -17.72073414	         10.76197996	         26.73669394	
          3.12000000	        -22.28968664	          6.61082877	        -14.98648545	          3.91392988	         14.49125207	          3.38539528	        -17.27746980	         10.87900933	         26.42732851	
          3.13000000	        -22.27310066	          6.59752098	        -14.94876488	          3.90399056	         14.49397082	          3.38412908	        -16.85804478	         11.01263515	         26.09198069	
          3.14000000	        -22.25822173	          6.59199370	        -14.90904936	          3.89595470	         14.51070301	          3.37836531	        -16.46023849	         11.16357758	         25.73333960	
          3.15000000	        -22.24211653	          6.59322970	        -14.86232309	          3.88955678	         14.54027412	          3.36848073	        -16.08363377	         11.33283067	         25.35561044	
          3.16000000	        -22.23561737	          6.60104212	        -14.82968284	          3.88480646	         14.57980033	          3.35539988	        -15.72720202	         11.52283181	         24.95709339	
          3.17000000	        -22.19772387	          6.61150927	        -14.73668241	          3.88160076	         14.62789741	          3.33960982	        -15.39902258	         11.73462290	         24.54088788	
          3.18000000	        -22.21691316	          6.63048759	        -14.74550282	          3.87943751	         14.68308145	          3.32151460	        -15.10244627	         11.96912048	         24.10380643	
          3.19000000	        -22.20001636	          6.64925314	        -14.68489546	          3.87724542	         14.74566872	          3.30102373	        -14.84215038	         12.22548343	         23.64705517	
          3.20000000	        -22.21312294	          6.67263389	        -14.67581575	          3.87481086	         14.81521912	          3.27823404	        -14.62438030	         12.50279804	         23.17146306	
          3.21000000	        -22.19388807	          6.69553086	        -14.60488267	          3.87238530	         14.89051544	          3.25359057	        -14.45177836	         12.80023376	         22.67580485	
          3.22000000	        -22.21295240	          6.72352955	        -14.60122712	          3.86988925	         14.97171296	          3.22699671	        -14.32480915	         13.11509134	         22.16312215	
          3.23000000	        -22.18463060	          6.74964607	        -14.50716598	          3.86687300	         15.06003948	          3.19808592	        -14.24028217	         13.44332347	         21.63840086	
          3.24000000	        -22.19859596	          6.78140457	        -14.48819971	          3.86415620	         15.15358834	          3.16746456	        -14.19045999	         13.78293555	         21.10199300	
          3.25000000	        -22.25032805	          6.81927677	        -14.53768756	          3.86291609	         15.25041152	          3.13575825	        -14.17156336	         14.13183301	         20.56273402	
          3.26000000	        -22.15377615	          6.84665661	        -14.31328204	          3.86146914	         15.35179876	          3.10274505	        -14.16752858	         14.48570868	         20.03135332	
          3.27000000	        -22.24544343	          6.88999752	        -14.43327259	          3.86047663	         15.45421565	          3.06922595	        -14.16708477	         14.84419175	         19.51114079	
          3.28000000	        -22.24005452	          6.92533786	        -14.37484218	          3.85914270	         15.55729720	          3.03558374	        -14.16096643	         15.20553842	         19.00804159	
          3.29000000	        -22.23158041	          6.95911576	        -14.31071993	          3.85714808	         15.65926142	          3.00228714	        -14.13935390	         15.56942967	         18.53045676	
          3.30000000	        -22.14687726	          6.98488776	        -14.10584430	          3.85372943	         15.76120297	          2.96900695	        -14.09449735	         15.93375951	         18.08566002	
          3.31000000	        -22.20757256	          7.02078802	        -14.16681966	          3.84929102	         15.86286615	          2.93564273	        -14.02169521	         16.29806787	         17.67568533	
          3.32000000	        -22.12555245	          7.04485923	        -13.96563614	          3.84447875	         15.96479906	          2.90225847	        -13.92331530	         16.66254399	         17.29915432	
          3.33000000	        -22.20622143	          7.08223985	        -14.06009254	          3.83878632	         16.07095420	          2.86738065	        -13.80200637	         17.02491574	         16.96209410	
          3.34000000	        -22.22163766	          7.11474777	        -14.02659274	          3.82983417	         16.19001382	          2.82815443	        -13.65598871	         17.37993214	         16.66866345	
          3.35000000	        -22.21412598	          7.14855358	        -13.94251395	          3.81913028	         16.32432923	          2.78393796	        -13.49297215	         17.72744788	         16.41100984	
          3.36000000	        -22.09347304	          7.17997865	        -13.64328857	          3.80912270	         16.47481489	          2.73454087	        -13.32332818	         18.06848156	         16.17477111	
          3.37000000	        -22.17543824	          7.23597609	        -13.70640598	          3.80002510	         16.64568222	          2.67851817	        -13.15272218	         18.40145330	         15.95184112	
          3.38000000	        -22.16240334	          7.29327073	        -13.57988624	          3.78976936	         16.84594774	          2.61289860	        -12.98834688	         18.72136031	         15.74251715	
          3.39000000	        -22.14771744	          7.36044305	        -13.43468170	          3.77898889	         17.07668851	          2.53737004	        -12.83793018	         19.02912191	         15.53625167	
          3.40000000	        -22.10968810	          7.43599423	        -13.23013643	          3.76766583	         17.33889593	          2.45163249	        -12.70873901	         19.32547258	         15.32449824	
          3.41000000	        -22.14950220	          7.52679772	        -13.15132996	          3.75495563	         17.63264537	          2.35559791	        -12.60214435	         19.61141624	         15.10261234	
          3.42000000	        -22.06767907	          7.61603835	        -12.83136881	          3.74053471	         17.95700057	          2.24968191	        -12.52065106	         19.88816495	         14.86771505	
          3.43000000	        -22.01726912	          7.71542702	        -12.55341534	          3.72508174	         18.30837710	          2.13497750	        -12.46347361	         20.15797132	         14.61589280	
          3.44000000	        -21.96825254	          7.82079799	        -12.26049149	          3.70713493	         18.68766642	          2.01120482	        -12.42544602	         20.41885048	         14.35258740	
          3.45000000	        -21.93056529	          7.93082090	        -11.96788554	          3.68458917	         19.09729545	          1.87758040	        -12.39968697	         20.66685174	         14.08925238	
          3.46000000	        -21.91039912	          8.04422361	        -11.68502730	          3.65599019	         19.53838496	          1.73379905	        -12.37909101	         20.89845394	         13.83775231	
          3.47000000	        -21.91146652	          8.16043425	        -11.41886962	          3.62122176	         20.00961482	          1.58039907	        -12.35894657	         21.11177517	         13.60517426	
          3.48000000	        -21.92940638	          8.27957736	        -11.16472918	          3.58214092	         20.50590659	          1.41916536	        -12.33817655	         21.30783358	         13.39348168	
          3.49000000	        -22.11548058	          8.41597239	        -11.21080357	          3.54343869	         21.01608872	          1.25384502	        -12.31977326	         21.49271289	         13.19821855	
          3.50000000	        -21.95111907	          8.52726993	        -10.60168337	          3.50587553	         21.53470026	          1.08652026	        -12.30411447	         21.66860540	         13.02578436	
          3.51000000	        -21.92654445	          8.64622461	        -10.23527527	          3.46302016	         22.06866048	          0.91450367	        -12.28462676	         21.82824835	         12.89013950	
          3.52000000	        -21.92695581	          8.76428516	         -9.90744946	          3.41818163	         22.60704084	          0.74172278	        -12.26472289	         21.97850914	         12.78629450	
          3.53000000	        -21.92523967	          8.87976658	         -9.57607218	          3.37440723	         23.13900641	          0.57175092	        -12.24752321	         22.12650289	         12.70496946	
          3.54000000	        -21.98476912	          8.99716568	         -9.36586158	          3.33364747	         23.65460587	          0.40783646	        -12.23128082	         22.27862428	         12.63757039	
          3.55000000	        -21.95753528	          9.10314113	         -9.00604405	          3.29603104	         24.14806952	          0.25174512	        -12.21487960	         22.43800260	         12.57773925	
